# xmcd
#
# Track frame offsets:
#	150
#	14053
#	31283
#	43039
#	57160
#	72738
#	84365
#	101985
#	117366
#	131596
#	141297
#	164821
#	178583
#	191681
#	205749
#	216432
#	235542
#	247354
#	258119
#	271155
#	283829
#	299161
#
# Disc length: 4074 seconds
#
# Revision: 7
# Processed by: cddbd v1.5.2PL0 Copyright (c) Steve Scherf et al.
# Submitted via: EZCDAudioConverter 2.1.7.1
#
DISCID=680fe816
DTITLE=Jan Hammer - Miami Vice - Complete Collection 2/2
DYEAR=2002
DGENRE=
TTITLE0=Candy
TTITLE1=Voodoo Dance
TTITLE2=Lombard Trial
TTITLE3=Boat Party
TTITLE4=Angelina Flashback
TTITLE5=Rain
TTITLE6=Clues
TTITLE7=Crockett's Return
TTITLE8=Shadow In The Dark
TTITLE9=Incoming
TTITLE10=The Talk
TTITLE11=Gina
TTITLE12=Stone's War
TTITLE13=El Viejo Mix
TTITLE14=Airport Swap
TTITLE15=Russian Story
TTITLE16=Cool Runnin'
TTITLE17=Texas Ranger
TTITLE18=The Great Boat Race
TTITLE19=Golden Triangle
TTITLE20=Runaround
TTITLE21=Turning Pint
EXTD=
EXTT0=
EXTT1=
EXTT2=
EXTT3=
EXTT4=
EXTT5=
EXTT6=
EXTT7=
EXTT8=
EXTT9=
EXTT10=
EXTT11=
EXTT12=
EXTT13=
EXTT14=
EXTT15=
EXTT16=
EXTT17=
EXTT18=
EXTT19=
EXTT20=
EXTT21=
PLAYORDER=
